<?xml version="1.0" standalone="no"?>
<!DOCTYPE svg PUBLIC "-//W3C//DTD SVG 20010904//EN"
 "http://www.w3.org/TR/2001/REC-SVG-20010904/DTD/svg10.dtd">
<svg version="1.0" xmlns="http://www.w3.org/2000/svg"
 width="430.000000pt" height="447.000000pt" viewBox="0 0 430.000000 447.000000"
 preserveAspectRatio="xMidYMid meet">

<g transform="translate(0.000000,447.000000) scale(0.100000,-0.100000)"
fill="#000000" stroke="none">
<path d="M0 2240 l0 -2230 515 0 515 0 0 1665 0 1665 580 0 c354 0 619 -4 682
-11 473 -51 788 -286 904 -676 37 -125 45 -355 16 -493 -35 -169 -123 -342
-223 -437 -78 -74 -292 -195 -511 -289 -38 -15 -68 -32 -68 -37 0 -7 680
-1107 696 -1126 11 -12 276 155 394 249 98 79 276 258 342 345 134 178 256
400 313 575 10 30 24 69 31 85 7 17 16 46 19 65 3 19 10 46 15 60 8 22 35 152
45 220 31 202 31 576 0 765 -46 286 -138 551 -274 783 -104 178 -311 414 -476
545 -304 239 -710 409 -1125 471 -202 31 -323 34 -1352 35 l-1038 1 0 -2230z"/>
<path d="M2005 1268 c-27 -6 -179 -11 -337 -12 l-288 -1 0 -92 0 -93 410 0
c226 0 410 2 410 5 0 15 -124 205 -133 204 -7 -1 -34 -6 -62 -11z"/>
<path d="M1380 780 l0 -140 540 0 c297 0 540 3 540 6 0 4 -37 67 -81 140 l-81
134 -459 0 -459 0 0 -140z"/>
<path d="M1380 249 l0 -241 403 5 c404 5 515 13 712 52 109 22 275 66 275 74
0 3 -47 83 -104 176 l-104 170 -591 3 -591 2 0 -241z"/>
</g>
</svg>
